<?xml version="1.0" standalone="no"?>
<!DOCTYPE svg PUBLIC "-//W3C//DTD SVG 20010904//EN"
 "http://www.w3.org/TR/2001/REC-SVG-20010904/DTD/svg10.dtd">
<svg version="1.0" xmlns="http://www.w3.org/2000/svg"
 width="292.000000pt" height="292.000000pt" viewBox="0 0 292.000000 292.000000"
 preserveAspectRatio="xMidYMid meet">

<g transform="translate(0.000000,292.000000) scale(0.100000,-0.100000)"
fill="#000000" stroke="none">
<path d="M0 1460 l0 -1460 170 0 170 0 0 33 c0 49 27 144 57 200 63 115 148
164 458 262 285 90 330 128 330 276 l0 75 -62 95 c-34 52 -72 121 -85 154 -19
50 -27 59 -44 57 -26 -4 -69 44 -94 103 -9 22 -25 82 -35 134 -13 68 -20 89
-27 77 -5 -9 -13 -14 -19 -11 -12 8 -12 112 1 136 13 23 3 25 -22 2 -10 -9
-20 -14 -23 -11 -3 2 4 36 15 74 25 86 25 85 -5 74 -30 -11 -29 -14 -9 41 8
24 26 91 40 149 29 123 59 174 116 200 38 17 39 19 19 29 -34 19 -25 26 44 38
60 10 70 16 113 61 38 41 55 51 92 57 71 10 85 16 69 26 -31 19 6 21 109 6 71
-11 138 -14 193 -10 72 5 92 3 131 -15 44 -19 99 -78 113 -121 3 -11 17 -16
47 -17 66 -1 82 -9 142 -69 42 -43 64 -100 75 -196 6 -46 13 -106 17 -134 7
-45 6 -49 -9 -37 -15 13 -16 9 -10 -35 3 -32 0 -69 -11 -105 -15 -51 -14 -58
0 -88 23 -45 6 -142 -41 -237 -38 -76 -73 -113 -109 -113 -18 0 -26 -12 -45
-73 -13 -39 -44 -112 -69 -162 -52 -105 -58 -162 -22 -242 42 -96 85 -121 384
-223 113 -38 226 -79 250 -91 53 -25 101 -75 126 -133 20 -48 50 -173 50 -210
l0 -26 165 0 165 0 0 1460 0 1460 -1460 0 -1460 0 0 -1460z"/>
</g>
</svg>
